<svg width="24" height="25" viewBox="0 0 24 25" fill="none" xmlns="http://www.w3.org/2000/svg">
<g id="Social Icons / Github">
<g id="Vector">
<path d="M0 12.8038C0 6.00847 5.3735 0.5 12.0001 0.5C18.6273 0.5 24 6.00847 24 12.8038C24 18.2381 20.566 22.8485 15.8006 24.4772C15.1923 24.598 14.9763 24.2144 14.9763 23.887C14.9763 23.7527 14.9778 23.5174 14.9799 23.2029C14.984 22.5683 14.9902 21.6108 14.9902 20.5105C14.9902 19.3626 14.6067 18.6138 14.1762 18.232C16.8484 17.9274 19.6557 16.8869 19.6557 12.1612C19.6557 10.8179 19.1901 9.72032 18.4206 8.85868C18.5452 8.54878 18.9562 7.29737 18.303 5.60261C18.303 5.60261 17.2967 5.27193 15.0063 6.8638C14.0473 6.59119 13.0199 6.45447 12.0001 6.44979C10.9803 6.45447 9.95372 6.59119 8.9965 6.8638C6.70331 5.27193 5.69562 5.60261 5.69562 5.60261C5.04402 7.29737 5.45477 8.54878 5.57937 8.85868C4.81172 9.72032 4.34295 10.8179 4.34295 12.1612C4.34295 16.8757 7.14486 17.9307 9.81024 18.2418C9.46706 18.549 9.15607 19.0918 9.04836 19.887C8.36359 20.2014 6.6266 20.7452 5.55632 18.8642C5.55632 18.8642 4.92181 17.6831 3.7168 17.5963C3.7168 17.5963 2.54596 17.5806 3.63473 18.3443C3.63473 18.3443 4.42125 18.7224 4.96712 20.1446C4.96712 20.1446 5.67157 22.3405 9.01001 21.5963C9.01282 22.155 9.01739 22.6964 9.02097 23.1213C9.02399 23.478 9.02631 23.7531 9.02631 23.887C9.02631 24.2119 8.80613 24.5927 8.2064 24.4789C3.43839 22.8519 0 18.24 0 12.8038Z" fill="white"/>
<path d="M4.37526 18.1182C4.46055 18.1598 4.55417 18.1416 4.58055 18.0811C4.6107 18.0204 4.56111 17.937 4.47403 17.8973C4.38736 17.8555 4.29354 17.8729 4.26775 17.9352C4.23959 17.996 4.28838 18.0785 4.37526 18.1182Z" fill="white"/>
<path d="M5.06491 18.6315C5.00779 18.6854 4.89612 18.6603 4.82035 18.5752C4.742 18.4903 4.72733 18.3767 4.78524 18.322C4.84415 18.2682 4.95245 18.2934 5.031 18.3783C5.10934 18.4643 5.12462 18.577 5.06491 18.6315Z" fill="white"/>
<path d="M5.26969 19.2281C5.34387 19.3364 5.46387 19.3851 5.53726 19.3332C5.61223 19.2802 5.61223 19.1502 5.53904 19.0401C5.46387 18.9326 5.34566 18.8858 5.27128 18.9378C5.1963 18.9899 5.1963 19.1198 5.26969 19.2281Z" fill="white"/>
<path d="M6.18439 20.011C6.11874 20.0846 5.9789 20.0648 5.87656 19.9644C5.77183 19.8661 5.74267 19.7267 5.80852 19.6531C5.87497 19.5793 6.0156 19.6 6.11874 19.6997C6.22267 19.7977 6.25441 19.9381 6.18439 20.011Z" fill="white"/>
<path d="M6.77789 20.5028C6.91356 20.5433 7.04824 20.4999 7.0772 20.4045C7.10537 20.3075 7.01651 20.1965 6.88123 20.155C6.74457 20.1116 6.6093 20.1568 6.58113 20.2528C6.55376 20.3492 6.64242 20.461 6.77789 20.5028Z" fill="white"/>
<path d="M8.05768 20.4776C8.06105 20.5781 7.94601 20.6614 7.8036 20.6632C7.66039 20.6664 7.54456 20.5851 7.54297 20.4863C7.54297 20.3848 7.65543 20.3023 7.79864 20.2999C7.94105 20.2971 8.05768 20.3777 8.05768 20.4776Z" fill="white"/>
<path d="M8.74633 20.5451C8.88775 20.5183 8.98673 20.4176 8.96967 20.3196C8.95162 20.2199 8.82488 20.161 8.68326 20.186C8.54441 20.2121 8.44365 20.3127 8.46091 20.4132C8.47856 20.5104 8.60729 20.571 8.74633 20.5451Z" fill="white"/>
</g>
</g>
</svg>
